<svg width="200" height="100" viewBox="0 0 200 100" fill="none" xmlns="http://www.w3.org/2000/svg">
<g id="Frame 1" clip-path="url(#clip0_1_2)">
<rect width="200" height="100" fill="white"/>
<path id="left-press" d="M8 45H-98C-99.1046 45 -100 45.8954 -100 47V53C-100 54.1046 -99.1046 55 -98 55H8C9.10457 55 10 55.8954 10 57V98C10 99.1046 10.8954 100 12 100H18C19.1046 100 20 99.1046 20 98V2C20 0.895431 19.1046 0 18 0H12C10.8954 0 10 0.89543 10 2V43C10 44.1046 9.10457 45 8 45Z" fill="black" stroke="black"/>
<path id="right-press" d="M192 45H298C299.105 45 300 45.8954 300 47V53C300 54.1046 299.105 55 298 55H192C190.895 55 190 55.8954 190 57V98C190 99.1046 189.105 100 188 100H182C180.895 100 180 99.1046 180 98V2C180 0.895431 180.895 0 182 0H188C189.105 0 190 0.89543 190 2V43C190 44.1046 190.895 45 192 45Z" fill="black" stroke="black"/>
</g>
<defs>
<clipPath id="clip0_1_2">
<rect width="200" height="100" fill="white"/>
</clipPath>
</defs>
</svg>
